<svg viewBox="0 0 64 64" xml:space="preserve" xmlns="http://www.w3.org/2000/svg"><path d="M38.501 7.69c-10.944 0-19.815 8.871-19.815 19.816 0 10.859 8.736 19.673 19.562 19.809v8.43l13.54-13.539a19.763 19.763 0 0 0 6.53-14.7C58.316 16.561 49.444 7.69 38.501 7.69z" fill="#ffffff" class="fill-000000"></path><path d="M21.882 46.654v-2.405l-1.975-.024c-5.638-.07-10.224-4.714-10.224-10.353 0-4.645 3.073-8.585 7.292-9.894a21.608 21.608 0 0 1 1.179-4.325c-7.026.927-12.471 6.942-12.471 14.218 0 7.146 5.315 13.141 12.199 14.19v8.248l9.871-9.871a22.032 22.032 0 0 1-3.323-2.332l-2.548 2.548z" fill="#ffffff" class="fill-000000"></path></svg>